<?xml version="1.0" encoding="utf-8"?>
<!-- Generator: Adobe Illustrator 27.0.0, SVG Export Plug-In . SVG Version: 6.00 Build 0)  -->
<svg version="1.1" id="Layer_1" xmlns="http://www.w3.org/2000/svg" xmlns:xlink="http://www.w3.org/1999/xlink" x="0px" y="0px"
	 viewBox="0 0 24 12" style="enable-background:new 0 0 24 12;" xml:space="preserve">
<style type="text/css">
	.st0{fill:#CC9900;}
	.st1{fill:#FFFFFF;}
</style>
<rect class="st0" width="24" height="12"/>
<path class="st1" d="M11.6,1.5v1.2h0.8V1.5H11.6z M9,2.6L8.4,3.1l0.8,0.8l0.6-0.5L9,2.6z M15,2.6l-0.8,0.8l0.6,0.5l0.8-0.8L15,2.6z
	 M12,3.4c-1.5,0-2.7,1.2-2.7,2.7c0,1.1,0.6,2,1.6,2.5v0.3v0.8c0,0.2,0.1,0.4,0.2,0.6c0.1,0.1,0.4,0.2,0.6,0.2h0.8
	c0.2,0,0.4-0.1,0.6-0.2c0.1-0.1,0.2-0.4,0.2-0.6V8.6c0.9-0.4,1.6-1.3,1.6-2.5C14.7,4.7,13.5,3.4,12,3.4z M7.3,5.8v0.8h1.2V5.8H7.3z
	 M15.5,5.8v0.8h1.2V5.8H15.5z M9.2,8.4L8.4,9.2l0.6,0.6l0.8-0.8L9.2,8.4z M14.8,8.4l-0.6,0.6l0.8,0.8l0.6-0.6L14.8,8.4z"/>
</svg>
