<?xml version="1.0" encoding="UTF-8"?>
<svg id="Layer_2" data-name="Layer 2" xmlns="http://www.w3.org/2000/svg" viewBox="0 0 61.02 88.76">
  <defs>
    <style>
      .cls-1, .cls-2 {
        fill: #fff;
      }

      .cls-3 {
        fill: #f46036;
      }

      .cls-4 {
        fill: #69b578;
      }

      .cls-2 {
        fill-rule: evenodd;
      }

      .cls-5 {
        stroke-width: .73px;
      }

      .cls-5, .cls-6 {
        fill: none;
        stroke: #fff;
        stroke-linecap: round;
        stroke-linejoin: round;
      }

      .cls-7 {
        fill: #f7cb15;
      }

      .cls-8 {
        fill: #4766ae;
      }

      .cls-6 {
        stroke-width: 1.06px;
      }

      .cls-9 {
        fill: #123f9b;
      }
    </style>
  </defs>
  <g id="Layer_1-2" data-name="Layer 1">
    <g>
      <path class="cls-8" d="m61.02,3.12v37.03c0,1.72-1.4,3.12-3.13,3.12h-22.1c-1.72,0-3.12-1.4-3.12-3.12V3.12c0-1.72,1.4-3.12,3.12-3.12h22.1c1.73,0,3.13,1.4,3.13,3.12Z"/>
      <path class="cls-7" d="m61.02,3.12v1.89h-28.35v-1.89c0-1.72,1.4-3.12,3.12-3.12h22.1c1.73,0,3.13,1.4,3.13,3.12Z"/>
      <g>
        <polygon class="cls-1" points="48.22 22.69 51.5 19.23 51.5 9.9 42.18 9.9 42.18 19.23 45.46 22.69 48.22 22.69"/>
        <rect class="cls-1" x="39.62" y="11.64" width="14.44" height="4.72"/>
        <path class="cls-6" d="m57.49,31.35h-8.42c-1.23,0-2.23-1-2.23-2.23v-4.47"/>
      </g>
      <line class="cls-6" x1="36.48" y1="33.86" x2="57.6" y2="33.86"/>
    </g>
    <g>
      <path class="cls-8" d="m28.35,3.12v37.03c0,1.72-1.4,3.12-3.13,3.12H3.12c-1.72,0-3.12-1.4-3.12-3.12V3.12C0,1.4,1.4,0,3.12,0h22.1c1.73,0,3.13,1.4,3.13,3.12Z"/>
      <path class="cls-9" d="m28.35,3.12v1.89H0v-1.89C0,1.4,1.4,0,3.12,0h22.1c1.73,0,3.13,1.4,3.13,3.12Z"/>
      <g>
        <path class="cls-2" d="m16.46,12.12c.84.21,1.63.55,2.35.98l1.76-1.37,1.4,1.4,1.4,1.4-1.37,1.76c.43.73.76,1.52.98,2.35l2.21.27v1.98s0,1.98,0,1.98l-2.21.27c-.21.84-.55,1.63-.98,2.35l1.37,1.76-1.4,1.4-1.4,1.4-1.76-1.37c-.45.27-.93.5-1.43.69.07-.16.1-.37.1-.65.12-1.35.39-2.21,1.51-3.77,1.23-1.66,1.74-4.13.86-6.21-.13-.35-.3-.69-.5-1.01h0s0,0,0,0c-1.06-1.73-2.97-2.88-5.15-2.88s-4.09,1.15-5.15,2.88h0s0,0,0,0c-.19.32-.36.65-.5,1.01-.88,2.09-.36,4.56.86,6.21,1.12,1.56,1.39,2.42,1.51,3.77,0,.28.04.49.1.65-.5-.19-.98-.42-1.43-.69l-1.76,1.37-1.4-1.4-1.4-1.4,1.37-1.76c-.43-.73-.76-1.52-.98-2.35l-2.21-.27v-1.98s0-1.98,0-1.98l2.21-.27c.21-.84.55-1.63.98-2.35l-1.37-1.76,1.4-1.4,1.4-1.4,1.76,1.37c.73-.43,1.52-.76,2.35-.98l.27-2.21h1.98s1.98,0,1.98,0l.27,2.21Z"/>
        <polygon class="cls-2" points="12.08 33.55 14.13 33.55 16.18 33.55 15.22 35.03 14.13 35.03 13.05 35.03 12.08 33.55"/>
        <path class="cls-2" d="m12.06,32.61h4.13c.34,0,.63.28.63.63h0c0,.34-.28.63-.63.63h-4.13c-.34,0-.63-.28-.63-.63h0c0-.34.28-.63.63-.63"/>
        <path class="cls-2" d="m12.06,32.61h4.13c.34,0,.63-.28.63-.63s-.28-.63-.63-.63h-4.13c-.34,0-.63.28-.63.63s.28.63.63.63"/>
        <path class="cls-2" d="m12.06,30.1h4.13c.34,0,.63.28.63.63s-.28.63-.63.63h-4.13c-.34,0-.63-.28-.63-.63s.28-.63.63-.63"/>
        <line class="cls-6" x1="12.59" y1="22.02" x2="15.81" y2="22.02"/>
        <line class="cls-6" x1="12.59" y1="23.82" x2="15.81" y2="23.82"/>
        <line class="cls-6" x1="14.2" y1="25.68" x2="14.2" y2="29.2"/>
      </g>
    </g>
    <g>
      <path class="cls-8" d="m61.02,50.88v34.76c0,1.72-1.4,3.12-3.13,3.12h-22.1c-1.72,0-3.12-1.4-3.12-3.12v-34.76c0-1.72,1.4-3.12,3.12-3.12h22.1c1.73,0,3.13,1.4,3.13,3.12Z"/>
      <path class="cls-3" d="m61.02,50.88v1.89h-28.35v-1.89c0-1.72,1.4-3.12,3.12-3.12h22.1c1.73,0,3.13,1.4,3.13,3.12Z"/>
      <g>
        <polyline class="cls-5" points="43.26 68.54 35.68 73.82 40.37 77.08 45.04 73.61"/>
        <polyline class="cls-5" points="48.66 73.61 42.06 78.26 46.75 81.52 57.83 73.82 50.24 68.54"/>
        <line class="cls-5" x1="51.57" y1="73.61" x2="48.66" y2="73.61"/>
        <line class="cls-5" x1="45.04" y1="73.61" x2="41.46" y2="73.61"/>
        <line class="cls-5" x1="44.93" y1="72.25" x2="42.85" y2="71.24"/>
        <line class="cls-5" x1="50.65" y1="71.24" x2="48.58" y2="72.25"/>
        <line class="cls-5" x1="46.75" y1="66.58" x2="46.75" y2="72.86"/>
        <polygon class="cls-1" points="51.57 57.66 51.57 61.03 49.16 63.44 49.16 65.85 47.36 67.29 46.15 67.29 44.35 65.85 44.35 63.44 41.94 61.03 41.94 57.66 51.57 57.66"/>
      </g>
    </g>
    <g>
      <path class="cls-8" d="m28.35,50.85v34.79c0,1.72-1.4,3.12-3.13,3.12H3.12c-1.72,0-3.12-1.4-3.12-3.12v-34.79c0-1.72,1.4-3.12,3.12-3.12h22.1c1.73,0,3.13,1.4,3.13,3.12Z"/>
      <path class="cls-4" d="m28.35,50.85v1.89H0v-1.89c0-1.72,1.4-3.12,3.12-3.12h22.1c1.73,0,3.13,1.4,3.13,3.12Z"/>
      <g>
        <path class="cls-2" d="m14.03,57.63h2s.28,2.23.28,2.23c.84.22,1.64.55,2.37.98l1.78-1.38,1.41,1.41,1.41,1.41-1.38,1.78c.43.73.77,1.53.98,2.37l2.23.28v2s0,2,0,2l-2.23.28c-.22.84-.55,1.64-.98,2.37l1.38,1.78-1.41,1.41-1.41,1.41-1.78-1.38c-.46.27-1.45.69-1.45.69l.03-3.17s1.19-.77,1.59-1.29c1.27-1.64,1.76-4.16.87-6.27-.14-.36-.3-.69-.5-1.01h0s0,0,0,0c-1.07-1.74-3-2.91-5.2-2.91-2.2,0-4.12,1.16-5.2,2.91h0s0,0,0,0c-.2.32-.36.66-.5,1.01-.89,2.11-.4,4.63.87,6.27.4.52,1.59,1.29,1.59,1.29l.03,3.17s-.99-.42-1.45-.69l-1.78,1.38-1.41-1.41-1.41-1.41,1.38-1.78c-.43-.73-.77-1.53-.98-2.37l-2.23-.28v-2s0-2,0-2l2.23-.28c.22-.84.55-1.64.98-2.37l-1.38-1.78,1.41-1.41,1.41-1.41,1.78,1.38c.73-.43,1.53-.77,2.37-.98l.28-2.23h2Z"/>
        <path class="cls-1" d="m12.16,70.98h3.75v10.02c0,1.03-.84,1.87-1.87,1.87h0c-1.03,0-1.87-.84-1.87-1.87v-10.02h0Z"/>
        <path class="cls-2" d="m18.15,68.76c0,2.59-2.39,4.62-5.09,4-1.49-.34-2.7-1.56-3.03-3.05-.45-2.04.6-3.91,2.28-4.68v2.94s1.73.76,1.73.76l1.73-.76v-2.94c1.41.65,2.38,2.08,2.38,3.73Z"/>
      </g>
    </g>
  </g>
</svg>